<svg width="26" height="24" viewBox="0 0 26 24" fill="none" xmlns="http://www.w3.org/2000/svg">
<path fill-rule="evenodd" clip-rule="evenodd" d="M1.78019 10.351C8.75807 6.97471 13.4034 4.73125 15.736 3.64284C22.3749 0.555312 23.7705 0.0222125 24.6677 0C24.867 0 25.3056 0.0444252 25.6047 0.310975C25.8439 0.533099 25.9037 0.821862 25.9436 1.04399C25.9835 1.26611 26.0234 1.73257 25.9835 2.08797C25.6246 6.30834 24.0696 16.5483 23.2721 21.2573C22.9332 23.2564 22.2752 23.9228 21.6373 23.9894C20.2417 24.1227 19.185 22.9677 17.8493 21.9903C15.736 20.4577 14.5597 19.5025 12.5062 17.9921C10.1337 16.2595 11.6688 15.3044 13.0246 13.7495C13.3834 13.3497 19.504 7.1302 19.6236 6.57489C19.6436 6.50825 19.6436 6.2417 19.504 6.10842C19.3645 5.97515 19.1651 6.01958 19.0056 6.064C18.7863 6.10842 15.4369 8.59622 8.91757 13.5052C7.9606 14.2382 7.10332 14.5936 6.32578 14.5714C5.4685 14.5492 3.83368 14.0383 2.5976 13.594C1.10233 13.0609 -0.0938751 12.7722 0.00580902 11.8392C0.0656195 11.3506 0.663724 10.8619 1.78019 10.351Z" fill="black"/>
</svg>
